<svg width="52" height="80" viewBox="0 0 52 80" fill="none" xmlns="http://www.w3.org/2000/svg">
<path d="M48.3445 6.20162C34.9907 11.5704 25.5416 24.6657 25.54 39.9961C25.4984 54.8588 34.5587 68.2534 48.3775 73.7956C49.0034 74.0565 49.2811 74.5922 49.2096 75.2499C49.136 75.9269 48.7087 76.4766 47.9837 76.6382C45.3917 77.2013 42.7714 77.5 40.04 77.5C17.9905 77.5 0.400573 58.4909 2.72669 35.9375C4.48734 19.0102 18.0326 5.0866 34.9286 2.8383C39.4744 2.23732 43.8604 2.46305 47.9797 3.36094C48.657 3.51429 49.086 4.04553 49.1579 4.7491C49.2286 5.44136 48.9298 5.96398 48.3445 6.20162Z" stroke="#A585FF" stroke-width="5"/>
</svg>
